# Blender 4.5.0
# www.blender.org
mtllib modle1.mtl
o Cube
v 1.000000 1.000000 -1.000000
v 1.000000 -1.000000 -1.000000
v 1.000000 1.000000 1.000000
v 1.000000 -1.000000 1.000000
v -1.000000 1.000000 -1.000000
v -1.000000 -1.000000 -1.000000
v -1.000000 1.000000 1.000000
v -1.000000 -1.000000 1.000000
v -0.397922 3.397922 1.000000
v 0.397922 3.397922 1.000000
v 1.000000 2.000000 -1.000000
v -1.000000 2.000000 -1.000000
v -1.000000 1.000000 2.526718
v 2.079553 2.000000 2.079553
v 2.526718 2.000000 -1.000000
v -0.397922 2.602078 1.000000
v 0.397922 2.602078 1.000000
v 0.602078 2.397922 1.000000
v -0.602078 2.397922 1.000000
v 0.602078 3.602078 1.000000
v -0.602078 3.602078 1.000000
v -0.397922 3.397922 -1.062563
v 0.397922 3.397922 -1.062563
v -0.397922 2.602078 -1.062563
v 0.397922 2.602078 -1.062563
v -0.397922 3.397922 0.394593
v 0.397922 3.397922 0.394593
v -0.397922 2.602078 0.394593
v 0.397922 2.602078 0.394593
v -0.397922 3.397922 0.351701
v 0.397922 3.397922 0.351701
v -0.397922 2.602078 0.351701
v 0.397922 2.602078 0.351701
v -0.397922 3.397922 -1.195223
v 0.397922 3.397922 -1.195223
v -0.397922 2.602078 -1.195223
v 0.397922 2.602078 -1.195223
v -0.397922 3.397922 -1.195237
v 0.397922 3.397922 -1.195237
v -0.397922 2.602078 -1.195237
v 0.397922 2.602078 -1.195237
v -0.397922 3.397922 -0.750929
v 0.397922 3.397922 -0.750929
v -0.397922 2.602078 -0.750929
v 0.397922 2.602078 -0.750929
v -0.397922 3.397922 1.038220
v 0.397922 3.397922 1.038220
v -0.397922 2.602078 1.038220
v 0.397922 2.602078 1.038220
v -0.397922 3.397922 0.459810
v 0.397922 3.397922 0.459810
v -0.397922 2.602078 0.459810
v 0.397922 2.602078 0.459810
v 1.000000 3.800000 -1.000000
v 0.800000 4.000000 -0.800000
v -0.800000 4.000000 -0.800000
v -1.000000 3.800000 -1.000000
v 0.800000 4.000000 0.800000
v -0.800000 4.000000 0.800000
v 1.000000 2.000000 0.738533
v 0.738533 2.261467 1.000000
v 0.738533 2.000000 1.000000
v 1.184885 2.000000 1.184885
v -0.738533 2.261467 1.000000
v -1.000000 2.000000 0.738533
v -1.000000 1.738533 1.000000
v -1.000000 2.000000 1.261467
v -0.738533 2.000000 1.000000
v 0.738533 3.669949 1.000000
v 1.000000 3.800000 0.738533
v 0.849042 3.950958 0.849042
v 0.738533 3.800000 1.000000
v -1.000000 3.800000 0.738533
v -0.738533 3.669949 1.000000
v -0.738533 3.800000 1.000000
v -0.849042 3.950958 0.849042
v -1.000000 2.000000 2.041630
v -0.862608 1.871529 2.511321
v -1.000000 1.514702 2.526718
v -0.862608 2.014914 2.367936
v -1.004505 1.871529 2.388540
v -0.519946 2.000000 2.457012
v 1.854954 1.000000 1.854954
v 2.079553 1.254543 2.079553
v 1.827652 1.000000 2.116130
v 2.013769 1.074554 2.013769
v 2.526718 1.254543 -1.000000
v 2.269506 1.000000 -1.000000
v 2.451383 1.074554 -1.000000
v 1.000000 0.333333 -1.000000
v 1.000000 -0.333333 -1.000000
v -1.000000 -0.333333 1.000000
v -1.000000 0.333333 1.000000
v 1.000000 0.333333 1.000000
v 1.000000 -0.333333 1.000000
v -1.000000 0.333333 -1.000000
v -1.000000 -0.333333 -1.000000
v -1.831414 -0.333333 1.831414
v -1.831414 0.333333 1.831414
v 1.000000 0.333333 2.175797
v 1.000000 -0.333333 2.175797
v -2.175797 0.333333 -1.000000
v -2.175797 -0.333333 -1.000000
v -2.740974 -0.333333 2.740974
v -2.740974 0.333333 2.740974
v 0.844691 0.333333 3.452699
v 0.844691 -0.333333 3.452699
v -3.452699 0.333333 -0.844691
v -3.452699 -0.333333 -0.844691
v 1.000000 3.433884 0.288037
v 1.000000 3.334711 -0.312673
v 1.000000 2.668770 0.343213
v 1.000000 2.550644 -0.479292
v 1.000000 2.668770 0.343213
v 1.000000 2.550643 -0.479292
v 1.666534 4.447595 0.571976
v 1.687931 4.305310 -0.809012
v 2.940478 2.000000 0.738533
v 2.940478 2.000000 -1.000000
v 2.940478 2.668770 0.343213
v 2.940478 2.550644 -0.479292
vn -0.0000 -0.0000 -1.0000
vn -0.0000 -0.0000 1.0000
vn -1.0000 -0.0000 -0.0000
vn -0.0000 -1.0000 -0.0000
vn 1.0000 -0.0000 -0.0000
vn -0.0000 1.0000 -0.0000
vn -0.0000 0.7071 -0.7071
vn 0.3574 0.8629 0.3574
vn -0.8018 0.5345 0.2673
vn 0.7035 0.1013 0.7035
vn -0.7035 0.1013 0.7035
vn 0.7071 -0.0000 0.7071
vn -0.7071 -0.0000 0.7071
vn 0.7071 0.7071 -0.0000
vn -0.0000 0.7071 0.7071
vn -0.7071 0.7071 -0.0000
vn -0.2852 0.9000 0.3296
vn -0.8690 0.3497 0.3499
vn -0.2214 0.3497 0.9103
vn -0.5219 0.6032 0.6032
vn 0.3908 -0.9196 0.0409
vn 0.5622 -0.4573 0.6891
vn 0.9143 -0.3827 0.1328
vn 0.3787 -0.9239 0.0550
vn 0.1437 -0.0000 0.9896
vn 0.9896 -0.0000 0.1437
vn 0.9927 -0.0000 0.1207
vn -0.9809 -0.0000 0.1947
vn -0.1947 -0.0000 0.9809
vn -0.1207 -0.0000 -0.9927
vn 0.9233 -0.3797 0.0577
vn -0.9330 0.3562 -0.0512
vn -0.0000 0.6871 -0.7266
vn -0.0000 0.5089 0.8608
vn -0.0000 0.9898 -0.1422
vt 0.625000 0.500000
vt 0.625000 0.250000
vt 0.541667 0.750000
vt 0.625000 0.750000
vt 0.625000 1.000000
vt 0.541667 1.000000
vt 0.541667 0.000000
vt 0.625000 0.000000
vt 0.541667 0.250000
vt 0.125000 0.500000
vt 0.375000 0.500000
vt 0.375000 0.750000
vt 0.125000 0.750000
vt 0.541667 0.500000
vt 0.700260 0.750000
vt 0.700260 0.750000
vt 0.799740 0.750000
vt 0.825260 0.750000
vt 0.674740 0.750000
vt 0.799740 0.750000
vt 0.674740 0.750000
vt 0.825260 0.750000
vt 0.850000 0.525000
vt 0.650000 0.525000
vt 0.875000 0.500000
vt 0.850000 0.725000
vt 0.650000 0.725000
vt 0.625000 0.717317
vt 0.655507 0.750000
vt 0.657683 0.750000
vt 0.625000 0.750000
vt 0.625000 0.000000
vt 0.625000 0.031965
vt 0.657683 0.750000
vt 0.625000 0.717718
vt 0.643870 0.731130
vt 0.657683 0.750000
vt 0.625000 0.032683
vt 0.625000 0.000000
vt 0.625000 0.018870
vt 0.842317 0.750000
vt 0.842317 0.750000
vt 0.842317 0.750000
vt 0.856130 0.731130
vt 0.842317 0.750000
vt 0.875000 0.717317
vt 0.832856 0.753527
vt 0.875000 0.750000
vt 0.739592 0.385309
vt 0.753195 0.383224
vt 0.876019 0.794589
vt 0.875000 0.750000
vt 0.625000 0.750000
vt 0.625000 0.750000
vt 0.625000 0.770449
vt 0.625000 0.770450
vt 0.625000 0.745529
vt 0.625000 0.500381
vt 0.625000 0.500000
vt 0.625000 0.961029
vt 0.375000 0.250000
vt 0.458333 0.250000
vt 0.458333 0.500000
vt 0.458333 0.750000
vt 0.375000 0.000000
vt 0.458333 0.000000
vt 0.458333 1.000000
vt 0.375000 1.000000
vt 0.625000 0.565128
vt 0.625000 0.668014
s 0
usemtl Material
f 1/1/1 5/2/1 12/2/1 11/1/1
f 94/3/2 3/4/2 7/5/2 93/6/2
f 93/7/3 7/8/3 5/2/3 96/9/3
f 6/10/4 2/11/4 4/12/4 8/13/4
f 90/14/5 1/1/5 3/4/5 94/3/5
f 96/9/1 5/2/1 1/1/1 90/14/1
f 17/15/3 10/16/3 23/16/3 25/15/3
f 9/17/2 10/16/2 19/18/2 18/19/2
f 17/15/2 16/20/2 20/21/2 21/22/2
f 10/16/2 17/15/2 21/22/2 19/18/2
f 16/20/2 9/17/2 18/19/2 20/21/2
f 22/17/3 24/20/3 28/20/3 26/17/3
f 10/16/4 9/17/4 22/17/4 23/16/4
f 9/17/5 16/20/5 24/20/5 22/17/5
f 16/20/6 17/15/6 25/15/6 24/20/6
f 28/20/6 29/15/6 33/15/6 32/20/6
f 24/20/4 25/15/4 29/15/4 28/20/4
f 25/15/5 23/16/5 27/16/5 29/15/5
f 23/16/6 22/17/6 26/17/6 27/16/6
f 33/15/3 31/16/3 35/16/3 37/15/3
f 29/15/3 27/16/3 31/16/3 33/15/3
f 27/16/4 26/17/4 30/17/4 31/16/4
f 26/17/5 28/20/5 32/20/5 30/17/5
f 34/17/5 36/20/5 40/20/5 38/17/5
f 31/16/4 30/17/4 34/17/4 35/16/4
f 30/17/5 32/20/5 36/20/5 34/17/5
f 32/20/6 33/15/6 37/15/6 36/20/6
f 39/16/6 38/17/6 42/17/6 43/16/6
f 36/20/6 37/15/6 41/15/6 40/20/6
f 37/15/3 35/16/3 39/16/3 41/15/3
f 35/16/4 34/17/4 38/17/4 39/16/4
f 42/17/3 44/20/3 48/20/3 46/17/3
f 38/17/3 40/20/3 44/20/3 42/17/3
f 40/20/4 41/15/4 45/15/4 44/20/4
f 41/15/5 39/16/5 43/16/5 45/15/5
f 49/15/3 47/16/3 51/16/3 53/15/3
f 44/20/4 45/15/4 49/15/4 48/20/4
f 45/15/5 43/16/5 47/16/5 49/15/5
f 43/16/6 42/17/6 46/17/6 47/16/6
f 51/16/2 50/17/2 52/20/2 53/15/2
f 47/16/4 46/17/4 50/17/4 51/16/4
f 46/17/5 48/20/5 52/20/5 50/17/5
f 48/20/6 49/15/6 53/15/6 52/20/6
f 56/23/7 55/24/7 54/1/7 57/25/7
f 55/24/6 56/23/6 59/26/6 58/27/6
f 11/1/1 12/2/1 57/2/1 54/1/1
f 60/28/8 61/29/8 62/30/8 63/31/8
f 64/32/9 65/33/9 66/8/9 67/8/9 68/8/9
f 69/34/10 70/35/10 71/36/10 72/37/10
f 73/38/11 74/39/11 75/8/11 76/40/11
f 69/34/12 61/29/12 60/28/12 70/35/12
f 64/32/13 74/39/13 73/38/13 65/33/13
f 18/19/2 19/18/2 64/41/2 68/42/2 62/30/2 61/29/2
f 20/21/2 18/19/2 61/29/2 69/34/2
f 60/28/4 11/1/4 119/1/4 118/28/4
f 11/1/6 60/28/6 63/31/6 14/4/6 15/1/6
f 5/2/3 7/8/3 66/8/3 65/33/3 12/2/3
f 19/18/2 21/22/2 74/43/2 64/41/2
f 12/2/3 65/33/3 73/38/3 57/2/3
f 55/24/14 58/27/14 71/36/14 70/35/14 54/1/14
f 58/27/15 59/26/15 76/44/15 75/45/15 72/37/15 71/36/15
f 21/22/2 20/21/2 69/34/2 72/37/2 75/45/2 74/43/2
f 59/26/16 56/23/16 57/25/16 73/46/16 76/44/16
f 82/47/17 77/48/17 78/49/17 81/50/17
f 77/48/18 79/8/18 80/51/18 78/49/18
f 79/8/19 82/47/19 81/50/19 80/51/19
f 63/31/6 62/30/6 68/42/6 67/52/6 77/48/6 82/47/6 14/4/6
f 78/49/20 80/51/20 81/50/20
f 67/8/3 66/8/3 7/8/3 13/8/3 79/8/3 77/8/3
f 83/53/21 86/54/21 85/55/21
f 86/54/22 84/4/22 85/56/22
f 87/1/23 84/4/23 86/57/23 89/58/23
f 89/58/24 86/57/24 83/53/24 88/59/24
f 13/5/25 85/55/25 84/4/25 14/4/25 82/60/25 79/5/25
f 3/4/4 1/1/4 88/59/4 83/53/4
f 7/5/4 3/4/4 83/53/4 85/55/4 13/5/4
f 84/4/26 87/1/26 15/1/26 14/4/26
f 1/1/1 11/1/1 15/1/1 87/1/1 89/58/1 88/59/1
f 6/61/1 97/62/1 91/63/1 2/11/1
f 97/62/1 96/9/1 90/14/1 91/63/1
f 2/11/5 91/63/5 95/64/5 4/12/5
f 91/63/5 90/14/5 94/3/5 95/64/5
f 8/65/3 92/66/3 97/62/3 6/61/3
f 93/7/6 96/9/6 102/9/6 99/7/6
f 4/12/2 95/64/2 92/67/2 8/68/2
f 94/3/6 93/6/6 99/6/6 100/3/6
f 100/3/6 99/6/6 105/6/6 106/3/6
f 101/64/27 100/3/27 106/3/27 107/64/27
f 96/9/1 97/62/1 103/62/1 102/9/1
f 95/64/5 94/3/5 100/3/5 101/64/5
f 92/67/4 95/64/4 101/64/4 98/67/4
f 97/62/4 92/66/4 98/66/4 103/62/4
f 104/66/28 105/7/28 108/9/28 109/62/28
f 107/64/29 106/3/29 105/6/29 104/67/29
f 99/7/6 102/9/6 108/9/6 105/7/6
f 102/9/30 103/62/30 109/62/30 108/9/30
f 98/67/4 101/64/4 107/64/4 104/67/4
f 103/62/4 98/66/4 104/66/4 109/62/4
f 113/69/5 11/1/5 54/1/5 70/35/5 60/28/5 112/70/5
f 113/69/31 112/70/31 114/70/31 115/69/31
f 115/69/32 114/70/32 116/70/32 117/69/32
f 118/28/5 119/1/5 121/69/5 120/70/5
f 11/1/33 113/69/33 121/69/33 119/1/33
f 112/70/34 60/28/34 118/28/34 120/70/34
f 113/69/35 112/70/35 120/70/35 121/69/35
